# Blender 3.3.1
# www.blender.org
mtllib Flappy Pipe.mtl
o Cylinder.006
v 0.003195 0.409606 0.397801
v -0.074474 0.409606 0.390781
v -0.149281 0.409606 0.368743
v -0.218350 0.409606 0.332535
v -0.279029 0.409606 0.283547
v -0.328985 0.409606 0.223663
v -0.366298 0.409606 0.155183
v -0.389534 0.409606 0.080740
v -0.397801 0.409606 0.003194
v -0.390781 0.409606 -0.074474
v -0.368743 0.409606 -0.149281
v -0.332534 0.409606 -0.218351
v -0.283547 0.409606 -0.279029
v -0.223663 0.409606 -0.328985
v -0.155183 0.409606 -0.366298
v -0.080740 0.409606 -0.389535
v -0.003195 0.409606 -0.397802
v 0.074474 0.409606 -0.390781
v 0.149280 0.409606 -0.368743
v 0.218350 0.409606 -0.332535
v 0.279029 0.409606 -0.283547
v 0.328985 0.409606 -0.223663
v 0.366298 0.409606 -0.155184
v 0.389534 0.409606 -0.080741
v 0.397801 0.409606 -0.003195
v 0.390781 0.409606 0.074474
v 0.368743 0.409606 0.149280
v 0.332534 0.409606 0.218350
v 0.283547 0.409606 0.279029
v 0.223663 0.409606 0.328985
v 0.155183 0.409606 0.366298
v 0.080740 0.409606 0.389534
v -0.074444 0.594907 0.390624
v 0.003193 0.594907 0.397641
v -0.149221 0.594907 0.368595
v -0.218262 0.594907 0.332401
v -0.278917 0.594907 0.283433
v -0.328852 0.594907 0.223573
v -0.366151 0.594907 0.155121
v -0.389378 0.594907 0.080708
v -0.397641 0.594907 0.003193
v -0.390624 0.594907 -0.074444
v -0.368595 0.594907 -0.149221
v -0.332401 0.594907 -0.218263
v -0.283433 0.594907 -0.278917
v -0.223573 0.594907 -0.328853
v -0.155121 0.594907 -0.366151
v -0.080708 0.594907 -0.389378
v -0.003193 0.594907 -0.397642
v 0.074444 0.594907 -0.390624
v 0.149220 0.594907 -0.368595
v 0.218262 0.594907 -0.332401
v 0.278917 0.594907 -0.283433
v 0.328852 0.594907 -0.223573
v 0.366150 0.594907 -0.155121
v 0.389378 0.594907 -0.080708
v 0.397641 0.594907 -0.003194
v 0.390624 0.594907 0.074444
v 0.368595 0.594907 0.149220
v 0.332401 0.594907 0.218262
v 0.283433 0.594907 0.278917
v 0.223573 0.594907 0.328853
v 0.155121 0.594907 0.366151
v 0.080708 0.594907 0.389378
v -0.093604 0.594907 0.491160
v 0.004015 0.594907 0.499984
v -0.187626 0.594907 0.463461
v -0.274437 0.594907 0.417952
v -0.350703 0.594907 0.356381
v -0.413490 0.594907 0.281115
v -0.460388 0.594907 0.195045
v -0.489593 0.594907 0.101480
v -0.499983 0.594907 0.004015
v -0.491160 0.594907 -0.093604
v -0.463461 0.594907 -0.187626
v -0.417952 0.594907 -0.274438
v -0.356381 0.594907 -0.350703
v -0.281114 0.594907 -0.413491
v -0.195045 0.594907 -0.460388
v -0.101480 0.594907 -0.489594
v -0.004015 0.594907 -0.499984
v 0.093604 0.594907 -0.491160
v 0.187626 0.594907 -0.463462
v 0.274437 0.594907 -0.417952
v 0.350702 0.594907 -0.356381
v 0.413490 0.594907 -0.281115
v 0.460388 0.594907 -0.195045
v 0.489593 0.594907 -0.101480
v 0.499983 0.594907 -0.004015
v 0.491160 0.594907 0.093604
v 0.463461 0.594907 0.187626
v 0.417952 0.594907 0.274437
v 0.356381 0.594907 0.350703
v 0.281114 0.594907 0.413491
v 0.195045 0.594907 0.460388
v 0.101480 0.594907 0.489593
v 0.004015 0.409606 0.499984
v -0.093604 0.409606 0.491160
v -0.187626 0.409606 0.463461
v -0.274437 0.409606 0.417952
v -0.350703 0.409606 0.356381
v -0.413490 0.409606 0.281115
v -0.460388 0.409606 0.195045
v -0.489593 0.409606 0.101480
v -0.499983 0.409606 0.004015
v -0.491160 0.409606 -0.093604
v -0.463461 0.409606 -0.187626
v -0.417952 0.409606 -0.274438
v -0.356381 0.409606 -0.350703
v -0.281114 0.409606 -0.413491
v -0.195045 0.409606 -0.460388
v -0.101480 0.409606 -0.489594
v -0.004015 0.409606 -0.499984
v 0.093604 0.409606 -0.491160
v 0.187626 0.409606 -0.463462
v 0.274437 0.409606 -0.417952
v 0.350702 0.409606 -0.356381
v 0.413490 0.409606 -0.281115
v 0.460388 0.409606 -0.195045
v 0.489593 0.409606 -0.101480
v 0.499983 0.409606 -0.004015
v 0.491160 0.409606 0.093604
v 0.463461 0.409606 0.187626
v 0.417952 0.409606 0.274437
v 0.356381 0.409606 0.350703
v 0.281114 0.409606 0.413491
v 0.195045 0.409606 0.460388
v 0.101480 0.409606 0.489593
v 0.003195 0.462735 0.397801
v -0.074474 0.462735 0.390781
v -0.149281 0.462735 0.368743
v -0.218350 0.462735 0.332535
v -0.279029 0.462735 0.283547
v -0.328985 0.462735 0.223663
v -0.366298 0.462735 0.155183
v -0.389534 0.462735 0.080740
v -0.397801 0.462735 0.003194
v -0.390781 0.462735 -0.074474
v -0.368743 0.462735 -0.149281
v -0.332534 0.462735 -0.218351
v -0.283547 0.462735 -0.279029
v -0.223663 0.462735 -0.328985
v -0.155183 0.462735 -0.366298
v -0.080740 0.462735 -0.389535
v -0.003195 0.462735 -0.397802
v 0.074474 0.462735 -0.390781
v 0.149280 0.462735 -0.368743
v 0.218350 0.462735 -0.332535
v 0.279029 0.462735 -0.283547
v 0.328985 0.462735 -0.223663
v 0.366298 0.462735 -0.155184
v 0.389534 0.462735 -0.080741
v 0.397801 0.462735 -0.003195
v 0.390781 0.462735 0.074474
v 0.368743 0.462735 0.149280
v 0.332534 0.462735 0.218350
v 0.283547 0.462735 0.279029
v 0.223663 0.462735 0.328985
v 0.155183 0.462735 0.366298
v 0.080740 0.462735 0.389534
v 0.003195 0.528239 0.397801
v -0.074474 0.528239 0.390781
v -0.149281 0.528239 0.368743
v -0.218350 0.528239 0.332535
v -0.279029 0.528239 0.283547
v -0.328985 0.528239 0.223663
v -0.366298 0.528239 0.155183
v -0.389534 0.528239 0.080740
v -0.397801 0.528239 0.003194
v -0.390781 0.528239 -0.074474
v -0.368743 0.528239 -0.149281
v -0.332534 0.528239 -0.218351
v -0.283547 0.528239 -0.279029
v -0.223663 0.528239 -0.328985
v -0.155183 0.528239 -0.366298
v -0.080740 0.528239 -0.389535
v -0.003195 0.528239 -0.397802
v 0.074474 0.528239 -0.390781
v 0.149280 0.528239 -0.368743
v 0.218350 0.528239 -0.332535
v 0.279029 0.528239 -0.283547
v 0.328985 0.528239 -0.223663
v 0.366298 0.528239 -0.155184
v 0.389534 0.528239 -0.080741
v 0.397801 0.528239 -0.003195
v 0.390781 0.528239 0.074474
v 0.368743 0.528239 0.149280
v 0.332534 0.528239 0.218350
v 0.283547 0.528239 0.279029
v 0.223663 0.528239 0.328985
v 0.155183 0.528239 0.366298
v 0.080740 0.528239 0.389534
v -0.000000 -0.405093 -0.397863
v -0.000000 0.408267 -0.397863
v 0.077619 -0.405093 -0.390218
v 0.077619 0.408267 -0.390218
v 0.152255 -0.405093 -0.367577
v 0.152255 0.408267 -0.367577
v 0.221040 -0.405093 -0.330811
v 0.221040 0.408267 -0.330811
v 0.281331 -0.405093 -0.281331
v 0.281331 0.408267 -0.281331
v 0.330810 -0.405093 -0.221041
v 0.330810 0.408267 -0.221041
v 0.367577 -0.405093 -0.152255
v 0.367577 0.408267 -0.152255
v 0.390217 -0.405093 -0.077619
v 0.390217 0.408267 -0.077619
v 0.397862 -0.405093 -0.000000
v 0.397862 0.408267 -0.000000
v 0.390217 -0.405093 0.077619
v 0.390217 0.408267 0.077619
v 0.367577 -0.405093 0.152255
v 0.367577 0.408267 0.152255
v 0.330810 -0.405093 0.221040
v 0.330810 0.408267 0.221040
v 0.281331 -0.405093 0.281331
v 0.281331 0.408267 0.281331
v 0.221040 -0.405093 0.330810
v 0.221040 0.408267 0.330810
v 0.152255 -0.405093 0.367577
v 0.152255 0.408267 0.367577
v 0.077619 -0.405093 0.390218
v 0.077619 0.408267 0.390218
v -0.000000 -0.405093 0.397862
v -0.000000 0.408267 0.397862
v -0.077619 -0.405093 0.390218
v -0.077619 0.408267 0.390218
v -0.152255 -0.405093 0.367577
v -0.152255 0.408267 0.367577
v -0.221040 -0.405093 0.330810
v -0.221040 0.408267 0.330810
v -0.281331 -0.405093 0.281331
v -0.281331 0.408267 0.281331
v -0.330810 -0.405093 0.221040
v -0.330810 0.408267 0.221040
v -0.367577 -0.405093 0.152255
v -0.367577 0.408267 0.152255
v -0.390217 -0.405093 0.077619
v -0.390217 0.408267 0.077619
v -0.397862 -0.405093 -0.000000
v -0.397862 0.408267 -0.000000
v -0.390217 -0.405093 -0.077619
v -0.390217 0.408267 -0.077619
v -0.367577 -0.405093 -0.152255
v -0.367577 0.408267 -0.152255
v -0.330810 -0.405093 -0.221041
v -0.330810 0.408267 -0.221041
v -0.281331 -0.405093 -0.281331
v -0.281331 0.408267 -0.281331
v -0.221040 -0.405093 -0.330811
v -0.221040 0.408267 -0.330811
v -0.152255 -0.405093 -0.367577
v -0.152255 0.408267 -0.367577
v -0.077619 -0.405093 -0.390218
v -0.077619 0.408267 -0.390218
vn 0.0080 -0.0000 1.0000
vn -0.1872 -0.0000 0.9823
vn -0.3753 -0.0000 0.9269
vn -0.5489 -0.0000 0.8359
vn -0.7014 -0.0000 0.7128
vn -0.8270 -0.0000 0.5622
vn -0.9208 -0.0000 0.3901
vn -0.9792 -0.0000 0.2030
vn -1.0000 -0.0000 0.0080
vn -0.9823 -0.0000 -0.1872
vn -0.9269 -0.0000 -0.3753
vn -0.8359 -0.0000 -0.5489
vn -0.7128 -0.0000 -0.7014
vn -0.5622 -0.0000 -0.8270
vn -0.3901 -0.0000 -0.9208
vn -0.2030 -0.0000 -0.9792
vn -0.0080 -0.0000 -1.0000
vn 0.1872 -0.0000 -0.9823
vn 0.3753 -0.0000 -0.9269
vn 0.5489 -0.0000 -0.8359
vn 0.7014 -0.0000 -0.7128
vn 0.8270 -0.0000 -0.5622
vn 0.9208 -0.0000 -0.3901
vn 0.9792 -0.0000 -0.2030
vn 1.0000 -0.0000 -0.0080
vn 0.9823 -0.0000 0.1872
vn 0.9269 -0.0000 0.3753
vn 0.8359 -0.0000 0.5489
vn 0.7128 -0.0000 0.7014
vn 0.5622 -0.0000 0.8270
vn 0.3901 -0.0000 0.9208
vn 0.2030 -0.0000 0.9792
vn -0.0000 1.0000 -0.0000
vn -0.0000 -1.0000 -0.0000
vn -0.9823 -0.0009 -0.1872
vn -0.9269 -0.0009 -0.3753
vn -0.8359 -0.0009 -0.5489
vn -0.7128 -0.0009 -0.7014
vn -0.5622 -0.0009 -0.8270
vn -0.3901 -0.0009 -0.9208
vn -0.2030 -0.0009 -0.9792
vn -1.0000 -0.0009 0.0080
vn -0.9792 -0.0009 0.2030
vn -0.9208 -0.0009 0.3901
vn -0.0080 -0.0009 -1.0000
vn 0.1872 -0.0009 -0.9823
vn 0.3753 -0.0009 -0.9269
vn 0.5489 -0.0009 -0.8359
vn 0.7014 -0.0009 -0.7128
vn 0.8270 -0.0009 -0.5622
vn 0.9208 -0.0009 -0.3901
vn 0.9792 -0.0009 -0.2030
vn 1.0000 -0.0009 -0.0080
vn 0.9823 -0.0009 0.1872
vn 0.9269 -0.0009 0.3753
vn 0.8359 -0.0009 0.5489
vn 0.7128 -0.0009 0.7014
vn 0.5622 -0.0009 0.8270
vn 0.3901 -0.0009 0.9208
vn 0.2030 -0.0009 0.9792
vn 0.0080 -0.0009 1.0000
vn -0.3753 -0.0009 0.9269
vn -0.5489 -0.0009 0.8359
vn -0.1872 -0.0009 0.9823
vn -0.7014 -0.0009 0.7128
vn -0.8270 -0.0009 0.5622
vn -0.0000 -0.0000 -1.0000
vn 0.1951 -0.0000 -0.9808
vn 0.3827 -0.0000 -0.9239
vn 0.5556 -0.0000 -0.8315
vn 0.7071 -0.0000 -0.7071
vn 0.8315 -0.0000 -0.5556
vn 0.9239 -0.0000 -0.3827
vn 0.9808 -0.0000 -0.1951
vn 1.0000 -0.0000 -0.0000
vn 0.9808 -0.0000 0.1951
vn 0.9239 -0.0000 0.3827
vn 0.8315 -0.0000 0.5556
vn 0.7071 -0.0000 0.7071
vn 0.5556 -0.0000 0.8315
vn 0.3827 -0.0000 0.9239
vn 0.1951 -0.0000 0.9808
vn -0.0000 -0.0000 1.0000
vn -0.1951 -0.0000 0.9808
vn -0.3827 -0.0000 0.9239
vn -0.5556 -0.0000 0.8315
vn -0.7071 -0.0000 0.7071
vn -0.8315 -0.0000 0.5556
vn -0.9239 -0.0000 0.3827
vn -0.9808 -0.0000 0.1951
vn -1.0000 -0.0000 -0.0000
vn -0.9808 -0.0000 -0.1951
vn -0.9239 -0.0000 -0.3827
vn -0.8315 -0.0000 -0.5556
vn -0.7071 -0.0000 -0.7071
vn -0.5556 -0.0000 -0.8315
vn -0.3827 -0.0000 -0.9239
vn -0.1951 -0.0000 -0.9808
vt 0.217628 0.000106
vt 0.217628 0.818379
vt 0.217165 0.990676
vt 0.217165 0.011733
vt 0.217598 0.792807
vt 0.212130 0.961451
vt 0.217569 0.767236
vt 0.209613 0.931975
vt 0.217543 0.741665
vt 0.208488 0.902529
vt 0.217518 0.716094
vt 0.209822 0.872181
vt 0.217495 0.690523
vt 0.209445 0.841543
vt 0.217475 0.664952
vt 0.211307 0.810317
vt 0.217456 0.639381
vt 0.210814 0.778690
vt 0.217439 0.613810
vt 0.210354 0.747583
vt 0.217424 0.588239
vt 0.209957 0.716810
vt 0.217412 0.562668
vt 0.209640 0.686351
vt 0.217401 0.537097
vt 0.209494 0.656307
vt 0.217392 0.511526
vt 0.211465 0.625662
vt 0.217385 0.485955
vt 0.211266 0.594732
vt 0.217380 0.460384
vt 0.213244 0.563348
vt 0.217377 0.434813
vt 0.212785 0.531562
vt 0.217376 0.409242
vt 0.212351 0.500281
vt 0.217377 0.383671
vt 0.211979 0.469237
vt 0.217380 0.358100
vt 0.211659 0.438302
vt 0.217385 0.332529
vt 0.211374 0.407413
vt 0.217392 0.306958
vt 0.211108 0.376544
vt 0.217401 0.281387
vt 0.210853 0.345682
vt 0.217412 0.255816
vt 0.210600 0.314825
vt 0.217424 0.230245
vt 0.210344 0.283972
vt 0.217439 0.204674
vt 0.210083 0.253128
vt 0.217456 0.179103
vt 0.209814 0.222303
vt 0.217475 0.153532
vt 0.209542 0.191516
vt 0.217495 0.127961
vt 0.209288 0.160800
vt 0.217518 0.102390
vt 0.209112 0.130210
vt 0.217543 0.076819
vt 0.209176 0.099831
vt 0.217569 0.051248
vt 0.209851 0.069782
vt 0.217598 0.025677
vt 0.211944 0.040233
vt 0.558900 0.805300
vt 0.351194 0.792653
vt 0.555562 0.823298
vt 0.554356 0.202613
vt 0.351225 0.000270
vt 0.351225 0.818214
vt 0.560249 0.786579
vt 0.351166 0.767092
vt 0.560675 0.767410
vt 0.351139 0.741531
vt 0.560704 0.747760
vt 0.351115 0.715971
vt 0.562013 0.728311
vt 0.351092 0.690410
vt 0.561949 0.709240
vt 0.351071 0.664849
vt 0.561756 0.689904
vt 0.351053 0.639289
vt 0.561502 0.670361
vt 0.351036 0.613728
vt 0.561209 0.650591
vt 0.351021 0.588167
vt 0.560905 0.630459
vt 0.351008 0.562606
vt 0.562152 0.610567
vt 0.350997 0.537046
vt 0.562022 0.590946
vt 0.350989 0.511485
vt 0.563284 0.571505
vt 0.350982 0.485924
vt 0.563211 0.552454
vt 0.350977 0.460364
vt 0.563052 0.533165
vt 0.350974 0.434803
vt 0.562875 0.513736
vt 0.350973 0.409242
vt 0.562701 0.494230
vt 0.350974 0.383681
vt 0.562534 0.474684
vt 0.350977 0.358121
vt 0.562373 0.455118
vt 0.350982 0.332560
vt 0.562216 0.435542
vt 0.350989 0.306999
vt 0.562063 0.415962
vt 0.350997 0.281438
vt 0.561911 0.396381
vt 0.351008 0.255878
vt 0.561761 0.376802
vt 0.351021 0.230317
vt 0.561610 0.357230
vt 0.351036 0.204756
vt 0.561456 0.337669
vt 0.351053 0.179195
vt 0.561287 0.318128
vt 0.351071 0.153635
vt 0.561082 0.298623
vt 0.351092 0.128074
vt 0.560789 0.279173
vt 0.351115 0.102513
vt 0.560302 0.259808
vt 0.351139 0.076953
vt 0.559406 0.240559
vt 0.351166 0.051392
vt 0.557687 0.221469
vt 0.351195 0.025831
vt 0.783169 0.005169
vt 0.581576 0.808284
vt 0.751499 0.005169
vt 0.752575 0.997145
vt 0.578648 0.829974
vt 0.579043 0.196558
vt 0.814840 0.005169
vt 0.583061 0.787982
vt 0.846510 0.005169
vt 0.583865 0.768136
vt 0.878181 0.005169
vt 0.584463 0.748369
vt 0.909851 0.005169
vt 0.584486 0.728845
vt 0.941521 0.005169
vt 0.584801 0.709456
vt 0.973192 0.005169
vt 0.584907 0.689972
vt 1.004862 0.005169
vt 1.004323 0.012338
vt 0.584932 0.670377
vt 0.972825 0.012338
vt 0.584991 0.650655
vt 0.941327 0.012338
vt 0.585247 0.630781
vt 0.909829 0.012338
vt 0.585183 0.611076
vt 0.878330 0.012338
vt 0.585716 0.591450
vt 0.846832 0.012338
vt 0.585705 0.572004
vt 0.815334 0.012338
vt 0.585999 0.552673
vt 0.783836 0.012338
vt 0.586078 0.533259
vt 0.752338 0.012338
vt 0.753129 0.994268
vt 0.586043 0.513778
vt 0.784322 0.994268
vt 0.585948 0.494251
vt 0.815514 0.994268
vt 0.585824 0.474698
vt 0.846706 0.994268
vt 0.585685 0.455129
vt 0.877899 0.994268
vt 0.585539 0.435553
vt 0.909091 0.994268
vt 0.585389 0.415973
vt 0.940283 0.994268
vt 0.585237 0.396392
vt 0.971476 0.994268
vt 0.585083 0.376812
vt 1.002668 0.994268
vt 1.002887 0.997145
vt 0.584924 0.357233
vt 0.971599 0.997145
vt 0.584756 0.337656
vt 0.940310 0.997145
vt 0.584569 0.318077
vt 0.909021 0.997145
vt 0.584341 0.298482
vt 0.877732 0.997145
vt 0.584034 0.278842
vt 0.846442 0.997145
vt 0.583568 0.259083
vt 0.815154 0.997145
vt 0.582796 0.239041
vt 0.783865 0.997145
vt 0.581433 0.218369
vt 0.751499 0.993027
vt 0.752576 0.006487
vt 0.179009 0.999894
vt 0.180672 0.001265
vt 0.783169 0.993027
vt 0.175517 0.965978
vt 0.814840 0.993027
vt 0.173803 0.933874
vt 0.846510 0.993027
vt 0.173321 0.902785
vt 0.878181 0.993027
vt 0.172812 0.871940
vt 0.909851 0.993027
vt 0.173376 0.840959
vt 0.941521 0.993027
vt 0.173146 0.809923
vt 0.973192 0.993027
vt 0.173480 0.778626
vt 1.004862 0.993027
vt 1.004323 0.989443
vt 0.173543 0.747572
vt 0.972825 0.989443
vt 0.173567 0.716717
vt 0.941327 0.989443
vt 0.173719 0.686045
vt 0.909829 0.989443
vt 0.174190 0.655544
vt 0.878330 0.989443
vt 0.174171 0.624878
vt 0.846832 0.989443
vt 0.175004 0.593930
vt 0.815334 0.989443
vt 0.174881 0.562853
vt 0.783836 0.989443
vt 0.175237 0.531483
vt 0.752338 0.989443
vt 0.753129 0.009326
vt 0.175235 0.500316
vt 0.784322 0.009326
vt 0.175083 0.469283
vt 0.815514 0.009326
vt 0.174871 0.438332
vt 0.846706 0.009326
vt 0.174636 0.407427
vt 0.877899 0.009326
vt 0.174395 0.376547
vt 0.909091 0.009326
vt 0.174151 0.345680
vt 0.940283 0.009326
vt 0.173907 0.314821
vt 0.971476 0.009326
vt 0.173664 0.283969
vt 1.002668 0.009326
vt 1.002887 0.006487
vt 0.173424 0.253125
vt 0.971599 0.006487
vt 0.173195 0.222292
vt 0.940310 0.006487
vt 0.172994 0.191473
vt 0.909021 0.006487
vt 0.172858 0.160666
vt 0.877732 0.006487
vt 0.172865 0.129846
vt 0.846443 0.006487
vt 0.173169 0.098935
vt 0.815154 0.006487
vt 0.174075 0.067716
vt 0.783865 0.006487
vt 0.176193 0.035639
vt 0.217165 0.990676
vt 0.217165 0.011733
vt 0.212130 0.961451
vt 0.209613 0.931975
vt 0.208488 0.902529
vt 0.209822 0.872181
vt 0.209445 0.841543
vt 0.211307 0.810317
vt 0.210814 0.778690
vt 0.210354 0.747583
vt 0.209957 0.716810
vt 0.209640 0.686351
vt 0.209494 0.656307
vt 0.211465 0.625662
vt 0.211266 0.594732
vt 0.213244 0.563348
vt 0.212785 0.531562
vt 0.212351 0.500281
vt 0.211979 0.469237
vt 0.211659 0.438302
vt 0.211374 0.407413
vt 0.211108 0.376544
vt 0.210853 0.345682
vt 0.210600 0.314825
vt 0.210344 0.283972
vt 0.210083 0.253128
vt 0.209814 0.222303
vt 0.209542 0.191516
vt 0.209288 0.160800
vt 0.209112 0.130210
vt 0.209176 0.099831
vt 0.209851 0.069782
vt 0.211944 0.040233
vt 0.606075 0.092054
vt 0.217165 0.990676
vt 0.217165 0.011733
vt 0.611063 0.117134
vt 0.212130 0.961451
vt 0.611063 0.142705
vt 0.209613 0.931975
vt 0.606075 0.167784
vt 0.208488 0.902529
vt 0.596289 0.191409
vt 0.209822 0.872181
vt 0.582082 0.212670
vt 0.209445 0.841543
vt 0.564001 0.230752
vt 0.211307 0.810317
vt 0.542739 0.244958
vt 0.210814 0.778690
vt 0.519115 0.254744
vt 0.210354 0.747583
vt 0.494035 0.259733
vt 0.209957 0.716810
vt 0.468464 0.259733
vt 0.209640 0.686351
vt 0.443385 0.254744
vt 0.209494 0.656307
vt 0.419760 0.244958
vt 0.211465 0.625662
vt 0.398499 0.230752
vt 0.211266 0.594732
vt 0.380417 0.212670
vt 0.213244 0.563348
vt 0.366211 0.191409
vt 0.212785 0.531562
vt 0.356425 0.167784
vt 0.212351 0.500281
vt 0.351436 0.142705
vt 0.211979 0.469237
vt 0.351436 0.117134
vt 0.211659 0.438302
vt 0.356425 0.092054
vt 0.211374 0.407413
vt 0.366211 0.068429
vt 0.211108 0.376544
vt 0.380417 0.047168
vt 0.210853 0.345682
vt 0.398499 0.029086
vt 0.210600 0.314825
vt 0.419760 0.014880
vt 0.210344 0.283972
vt 0.443385 0.005094
vt 0.210083 0.253128
vt 0.468464 0.000106
vt 0.209814 0.222303
vt 0.494035 0.000106
vt 0.209542 0.191516
vt 0.519115 0.005094
vt 0.209288 0.160800
vt 0.542740 0.014880
vt 0.209112 0.130210
vt 0.564001 0.029086
vt 0.209176 0.099831
vt 0.582083 0.047168
vt 0.209851 0.069782
vt 0.596289 0.068429
vt 0.211944 0.040233
vt 0.750167 1.001726
vt 0.750705 0.006573
vt 0.642193 0.642914
vt 0.750166 0.008638
vt 0.495244 0.932884
vt 0.750705 1.002728
vt 0.781755 1.001726
vt 0.609490 0.657168
vt 0.781754 0.008638
vt 0.534576 0.932884
vt 0.813343 1.001726
vt 0.573152 0.666987
vt 0.813342 0.008638
vt 0.573152 0.927878
vt 0.844931 1.001726
vt 0.534576 0.671992
vt 0.844931 0.008638
vt 0.609490 0.918059
vt 0.876520 1.001726
vt 0.495244 0.671992
vt 0.876519 0.008638
vt 0.642193 0.903805
vt 0.908108 1.001726
vt 0.456668 0.666987
vt 0.908107 0.008638
vt 0.670005 0.885662
vt 0.939696 1.001726
vt 0.420330 0.657168
vt 0.939696 0.008638
vt 0.691857 0.864329
vt 0.971284 1.001726
vt 0.387626 0.642914
vt 0.971284 0.008638
vt 0.706909 0.840625
vt 1.002872 1.001726
vt 1.002226 0.007472
vt 0.359814 0.624771
vt 1.002872 0.008638
vt 1.002226 1.003692
vt 0.714582 0.815460
vt 0.971208 0.007472
vt 0.337963 0.603438
vt 0.971208 1.003692
vt 0.714582 0.789803
vt 0.940189 0.007472
vt 0.322911 0.579733
vt 0.940190 1.003692
vt 0.706909 0.764638
vt 0.909171 0.007472
vt 0.315238 0.554569
vt 0.909172 1.003692
vt 0.691857 0.740934
vt 0.878153 0.007472
vt 0.315238 0.528911
vt 0.878153 1.003692
vt 0.670005 0.719601
vt 0.847135 0.007472
vt 0.322911 0.503747
vt 0.847135 1.003692
vt 0.642194 0.701458
vt 0.816117 0.007472
vt 0.337963 0.480043
vt 0.816117 1.003692
vt 0.609490 0.687204
vt 0.785099 0.007472
vt 0.359814 0.458709
vt 0.785099 1.003692
vt 0.573152 0.677385
vt 0.754081 0.007472
vt 0.751577 1.003144
vt 0.387626 0.440567
vt 0.754080 1.003692
vt 0.752237 0.006228
vt 0.534576 0.672379
vt 0.782962 1.003187
vt 0.420330 0.426312
vt 0.783622 0.006271
vt 0.495244 0.672379
vt 0.814346 1.003230
vt 0.456668 0.416493
vt 0.815006 0.006314
vt 0.456668 0.677385
vt 0.845730 1.003272
vt 0.495244 0.411488
vt 0.846391 0.006356
vt 0.420330 0.687204
vt 0.877115 1.003315
vt 0.534576 0.411488
vt 0.877775 0.006399
vt 0.387626 0.701458
vt 0.908499 1.003358
vt 0.573152 0.416494
vt 0.909160 0.006441
vt 0.359814 0.719601
vt 0.939884 1.003400
vt 0.609490 0.426312
vt 0.940544 0.006484
vt 0.337963 0.740934
vt 0.971268 1.003443
vt 0.642193 0.440567
vt 0.971929 0.006526
vt 0.322911 0.764638
vt 1.002653 1.003485
vt 1.002325 0.006573
vt 0.670005 0.458709
vt 1.003313 0.006569
vt 1.002326 1.002728
vt 0.315238 0.789803
vt 0.970873 0.006573
vt 0.691857 0.480043
vt 0.970873 1.002728
vt 0.315238 0.815460
vt 0.939420 0.006573
vt 0.706909 0.503747
vt 0.939421 1.002728
vt 0.322911 0.840625
vt 0.907968 0.006573
vt 0.714582 0.528911
vt 0.907968 1.002728
vt 0.337963 0.864329
vt 0.876515 0.006573
vt 0.714582 0.554569
vt 0.876515 1.002728
vt 0.359814 0.885662
vt 0.845063 0.006573
vt 0.706909 0.579733
vt 0.845063 1.002728
vt 0.387626 0.903805
vt 0.813610 0.006573
vt 0.691857 0.603438
vt 0.420330 0.918059
vt 0.813610 1.002728
vt 0.782158 0.006573
vt 0.670005 0.624771
vt 0.456668 0.927878
vt 0.782158 1.002728
s 1
usemtl Material.015
f 97/202/1 66/135/1 65/133/2 98/206/2
f 98/206/2 65/133/2 67/139/3 99/208/3
f 99/208/3 67/139/3 68/141/4 100/210/4
f 100/210/4 68/141/4 69/143/5 101/212/5
f 101/212/5 69/143/5 70/145/6 102/214/6
f 102/214/6 70/145/6 71/147/7 103/216/7
f 103/216/7 71/147/7 72/149/8 104/218/8
f 104/218/8 72/149/8 73/151/9 105/220/9
f 105/221/9 73/152/9 74/154/10 106/223/10
f 106/223/10 74/154/10 75/156/11 107/225/11
f 107/225/11 75/156/11 76/158/12 108/227/12
f 108/227/12 76/158/12 77/160/13 109/229/13
f 109/229/13 77/160/13 78/162/14 110/231/14
f 110/231/14 78/162/14 79/164/15 111/233/15
f 111/233/15 79/164/15 80/166/16 112/235/16
f 112/235/16 80/166/16 81/168/17 113/237/17
f 113/238/17 81/169/17 82/171/18 114/240/18
f 114/240/18 82/171/18 83/173/19 115/242/19
f 115/242/19 83/173/19 84/175/20 116/244/20
f 116/244/20 84/175/20 85/177/21 117/246/21
f 117/246/21 85/177/21 86/179/22 118/248/22
f 118/248/22 86/179/22 87/181/23 119/250/23
f 119/250/23 87/181/23 88/183/24 120/252/24
f 120/252/24 88/183/24 89/185/25 121/254/25
f 121/255/25 89/186/25 90/188/26 122/257/26
f 122/257/26 90/188/26 91/190/27 123/259/27
f 123/259/27 91/190/27 92/192/28 124/261/28
f 124/261/28 92/192/28 93/194/29 125/263/29
f 125/263/29 93/194/29 94/196/30 126/265/30
f 126/265/30 94/196/30 95/198/31 127/267/31
f 127/267/31 95/198/31 96/200/32 128/269/32
f 128/269/32 96/200/32 66/136/1 97/203/1
f 24/50/8 25/52/9 153/296/9 152/295/8
f 34/69/33 33/67/33 65/134/33 66/137/33
f 33/67/33 35/73/33 67/140/33 65/134/33
f 35/73/33 36/75/33 68/142/33 67/140/33
f 36/75/33 37/77/33 69/144/33 68/142/33
f 37/77/33 38/79/33 70/146/33 69/144/33
f 38/79/33 39/81/33 71/148/33 70/146/33
f 39/81/33 40/83/33 72/150/33 71/148/33
f 40/83/33 41/85/33 73/153/33 72/150/33
f 41/85/33 42/87/33 74/155/33 73/153/33
f 42/87/33 43/89/33 75/157/33 74/155/33
f 43/89/33 44/91/33 76/159/33 75/157/33
f 44/91/33 45/93/33 77/161/33 76/159/33
f 45/93/33 46/95/33 78/163/33 77/161/33
f 46/95/33 47/97/33 79/165/33 78/163/33
f 47/97/33 48/99/33 80/167/33 79/165/33
f 48/99/33 49/101/33 81/170/33 80/167/33
f 49/101/33 50/103/33 82/172/33 81/170/33
f 50/103/33 51/105/33 83/174/33 82/172/33
f 51/105/33 52/107/33 84/176/33 83/174/33
f 52/107/33 53/109/33 85/178/33 84/176/33
f 53/109/33 54/111/33 86/180/33 85/178/33
f 54/111/33 55/113/33 87/182/33 86/180/33
f 55/113/33 56/115/33 88/184/33 87/182/33
f 56/115/33 57/117/33 89/187/33 88/184/33
f 57/117/33 58/119/33 90/189/33 89/187/33
f 58/119/33 59/121/33 91/191/33 90/189/33
f 59/121/33 60/123/33 92/193/33 91/191/33
f 60/123/33 61/125/33 93/195/33 92/193/33
f 61/125/33 62/127/33 94/197/33 93/195/33
f 62/127/33 63/129/33 95/199/33 94/197/33
f 63/129/33 64/131/33 96/201/33 95/199/33
f 64/131/33 34/70/33 66/138/33 96/201/33
f 2/6/34 1/3/34 97/204/34 98/207/34
f 3/8/34 2/6/34 98/207/34 99/209/34
f 4/10/34 3/8/34 99/209/34 100/211/34
f 5/12/34 4/10/34 100/211/34 101/213/34
f 6/14/34 5/12/34 101/213/34 102/215/34
f 7/16/34 6/14/34 102/215/34 103/217/34
f 8/18/34 7/16/34 103/217/34 104/219/34
f 9/20/34 8/18/34 104/219/34 105/222/34
f 10/22/34 9/20/34 105/222/34 106/224/34
f 11/24/34 10/22/34 106/224/34 107/226/34
f 12/26/34 11/24/34 107/226/34 108/228/34
f 13/28/34 12/26/34 108/228/34 109/230/34
f 14/30/34 13/28/34 109/230/34 110/232/34
f 15/32/34 14/30/34 110/232/34 111/234/34
f 16/34/34 15/32/34 111/234/34 112/236/34
f 17/36/34 16/34/34 112/236/34 113/239/34
f 18/38/34 17/36/34 113/239/34 114/241/34
f 19/40/34 18/38/34 114/241/34 115/243/34
f 20/42/34 19/40/34 115/243/34 116/245/34
f 21/44/34 20/42/34 116/245/34 117/247/34
f 22/46/34 21/44/34 117/247/34 118/249/34
f 23/48/34 22/46/34 118/249/34 119/251/34
f 24/50/34 23/48/34 119/251/34 120/253/34
f 25/52/34 24/50/34 120/253/34 121/256/34
f 26/54/34 25/52/34 121/256/34 122/258/34
f 27/56/34 26/54/34 122/258/34 123/260/34
f 28/58/34 27/56/34 123/260/34 124/262/34
f 29/60/34 28/58/34 124/262/34 125/264/34
f 30/62/34 29/60/34 125/264/34 126/266/34
f 31/64/34 30/62/34 126/266/34 127/268/34
f 32/66/34 31/64/34 127/268/34 128/270/34
f 1/4/34 32/66/34 128/270/34 97/205/34
f 148/291/4 149/292/5 181/346/5 180/344/4
f 11/24/27 12/26/28 140/283/28 139/282/27
f 25/52/9 26/54/10 154/297/10 153/296/9
f 12/26/28 13/28/29 141/284/29 140/283/28
f 26/54/10 27/56/11 155/298/11 154/297/10
f 13/28/29 14/30/30 142/285/30 141/284/29
f 27/56/11 28/58/12 156/299/12 155/298/11
f 14/30/30 15/32/31 143/286/31 142/285/30
f 1/3/17 2/6/18 130/273/18 129/271/17
f 28/58/12 29/60/13 157/300/13 156/299/12
f 15/32/31 16/34/32 144/287/32 143/286/31
f 2/6/18 3/8/19 131/274/19 130/273/18
f 29/60/13 30/62/14 158/301/14 157/300/13
f 16/34/32 17/36/1 145/288/1 144/287/32
f 3/8/19 4/10/20 132/275/20 131/274/19
f 30/62/14 31/64/15 159/302/15 158/301/14
f 17/36/1 18/38/2 146/289/2 145/288/1
f 4/10/20 5/12/21 133/276/21 132/275/20
f 31/64/15 32/66/16 160/303/16 159/302/15
f 18/38/2 19/40/3 147/290/3 146/289/2
f 5/12/21 6/14/22 134/277/22 133/276/21
f 32/66/16 1/4/17 129/272/17 160/303/16
f 19/40/3 20/42/4 148/291/4 147/290/3
f 6/14/22 7/16/23 135/278/23 134/277/22
f 20/42/4 21/44/5 149/292/5 148/291/4
f 7/16/23 8/18/24 136/279/24 135/278/23
f 21/44/5 22/46/6 150/293/6 149/292/5
f 8/18/24 9/20/25 137/280/25 136/279/24
f 22/46/6 23/48/7 151/294/7 150/293/6
f 9/20/25 10/22/26 138/281/26 137/280/25
f 23/48/7 24/50/8 152/295/8 151/294/7
f 10/22/26 11/24/27 139/282/27 138/281/26
f 135/278/23 136/279/24 168/320/24 167/318/23
f 149/292/5 150/293/6 182/348/6 181/346/5
f 136/279/24 137/280/25 169/322/25 168/320/24
f 150/293/6 151/294/7 183/350/7 182/348/6
f 137/280/25 138/281/26 170/324/26 169/322/25
f 151/294/7 152/295/8 184/352/8 183/350/7
f 138/281/26 139/282/27 171/326/27 170/324/26
f 152/295/8 153/296/9 185/354/9 184/352/8
f 139/282/27 140/283/28 172/328/28 171/326/27
f 153/296/9 154/297/10 186/356/10 185/354/9
f 140/283/28 141/284/29 173/330/29 172/328/28
f 154/297/10 155/298/11 187/358/11 186/356/10
f 141/284/29 142/285/30 174/332/30 173/330/29
f 155/298/11 156/299/12 188/360/12 187/358/11
f 142/285/30 143/286/31 175/334/31 174/332/30
f 129/271/17 130/273/18 162/308/18 161/305/17
f 156/299/12 157/300/13 189/362/13 188/360/12
f 143/286/31 144/287/32 176/336/32 175/334/31
f 130/273/18 131/274/19 163/310/19 162/308/18
f 157/300/13 158/301/14 190/364/14 189/362/13
f 144/287/32 145/288/1 177/338/1 176/336/32
f 131/274/19 132/275/20 164/312/20 163/310/19
f 158/301/14 159/302/15 191/366/15 190/364/14
f 145/288/1 146/289/2 178/340/2 177/338/1
f 132/275/20 133/276/21 165/314/21 164/312/20
f 159/302/15 160/303/16 192/368/16 191/366/15
f 146/289/2 147/290/3 179/342/3 178/340/2
f 133/276/21 134/277/22 166/316/22 165/314/21
f 160/303/16 129/272/17 161/306/17 192/368/16
f 147/290/3 148/291/4 180/344/4 179/342/3
f 134/277/22 135/278/23 167/318/23 166/316/22
usemtl Material.016
f 26/53/35 27/55/36 59/122/36 58/120/35
f 28/57/37 60/124/37 59/122/36 27/55/36
f 29/59/38 61/126/38 60/124/37 28/57/37
f 30/61/39 62/128/39 61/126/38 29/59/38
f 31/63/40 32/65/41 64/132/41 63/130/40
f 30/61/39 31/63/40 63/130/40 62/128/39
f 25/51/42 26/53/35 58/120/35 57/118/42
f 24/49/43 25/51/42 57/118/42 56/116/43
f 23/47/44 24/49/43 56/116/43 55/114/44
f 32/65/41 1/1/45 34/71/45 64/132/41
f 1/2/45 2/5/46 33/68/46 34/72/45
f 2/5/46 3/7/47 35/74/47 33/68/46
f 3/7/47 4/9/48 36/76/48 35/74/47
f 4/9/48 5/11/49 37/78/49 36/76/48
f 5/11/49 6/13/50 38/80/50 37/78/49
f 6/13/50 7/15/51 39/82/51 38/80/50
f 7/15/51 8/17/52 40/84/52 39/82/51
f 8/17/52 9/19/53 41/86/53 40/84/52
f 9/19/53 10/21/54 42/88/54 41/86/53
f 10/21/54 11/23/55 43/90/55 42/88/54
f 11/23/55 12/25/56 44/92/56 43/90/55
f 12/25/56 13/27/57 45/94/57 44/92/56
f 13/27/57 14/29/58 46/96/58 45/94/57
f 14/29/58 15/31/59 47/98/59 46/96/58
f 15/31/59 16/33/60 48/100/60 47/98/59
f 16/33/60 17/35/61 49/102/61 48/100/60
f 19/39/62 20/41/63 52/108/63 51/106/62
f 18/37/64 19/39/62 51/106/62 50/104/64
f 17/35/61 18/37/64 50/104/64 49/102/61
f 20/41/63 21/43/65 53/110/65 52/108/63
f 21/43/65 22/45/66 54/112/66 53/110/65
f 22/45/66 23/47/44 55/114/44 54/112/66
f 161/304/34 162/307/34 163/309/34 164/311/34 165/313/34 166/315/34 167/317/34 168/319/34 169/321/34 170/323/34 171/325/34 172/327/34 173/329/34 174/331/34 175/333/34 176/335/34 177/337/34 178/339/34 179/341/34 180/343/34 181/345/34 182/347/34 183/349/34 184/351/34 185/353/34 186/355/34 187/357/34 188/359/34 189/361/34 190/363/34 191/365/34 192/367/34
usemtl Material.011
f 193/369/67 194/372/67 196/377/68 195/375/68
f 195/375/68 196/377/68 198/381/69 197/379/69
f 197/379/69 198/381/69 200/385/70 199/383/70
f 199/383/70 200/385/70 202/389/71 201/387/71
f 201/387/71 202/389/71 204/393/72 203/391/72
f 203/391/72 204/393/72 206/397/73 205/395/73
f 205/395/73 206/397/73 208/401/74 207/399/74
f 207/399/74 208/401/74 210/406/75 209/403/75
f 209/404/75 210/407/75 212/411/76 211/409/76
f 211/409/76 212/411/76 214/415/77 213/413/77
f 213/413/77 214/415/77 216/419/78 215/417/78
f 215/417/78 216/419/78 218/423/79 217/421/79
f 217/421/79 218/423/79 220/427/80 219/425/80
f 219/425/80 220/427/80 222/431/81 221/429/81
f 221/429/81 222/431/81 224/435/82 223/433/82
f 223/433/82 224/435/82 226/440/83 225/437/83
f 225/438/83 226/441/83 228/445/84 227/443/84
f 227/443/84 228/445/84 230/449/85 229/447/85
f 229/447/85 230/449/85 232/453/86 231/451/86
f 231/451/86 232/453/86 234/457/87 233/455/87
f 233/455/87 234/457/87 236/461/88 235/459/88
f 235/459/88 236/461/88 238/465/89 237/463/89
f 237/463/89 238/465/89 240/469/90 239/467/90
f 239/467/90 240/469/90 242/474/91 241/471/91
f 241/472/91 242/475/91 244/479/92 243/477/92
f 243/477/92 244/479/92 246/483/93 245/481/93
f 245/481/93 246/483/93 248/487/94 247/485/94
f 247/485/94 248/487/94 250/491/95 249/489/95
f 249/489/95 250/491/95 252/495/96 251/493/96
f 251/493/96 252/495/96 254/500/97 253/497/97
f 196/378/33 194/373/33 256/503/33 254/499/33 252/496/33 250/492/33 248/488/33 246/484/33 244/480/33 242/476/33 240/470/33 238/466/33 236/462/33 234/458/33 232/454/33 230/450/33 228/446/33 226/442/33 224/436/33 222/432/33 220/428/33 218/424/33 216/420/33 214/416/33 212/412/33 210/408/33 208/402/33 206/398/33 204/394/33 202/390/33 200/386/33 198/382/33
f 253/497/97 254/500/97 256/504/98 255/501/98
f 255/501/98 256/504/98 194/374/67 193/370/67
f 193/371/34 195/376/34 197/380/34 199/384/34 201/388/34 203/392/34 205/396/34 207/400/34 209/405/34 211/410/34 213/414/34 215/418/34 217/422/34 219/426/34 221/430/34 223/434/34 225/439/34 227/444/34 229/448/34 231/452/34 233/456/34 235/460/34 237/464/34 239/468/34 241/473/34 243/478/34 245/482/34 247/486/34 249/490/34 251/494/34 253/498/34 255/502/34
